# xmcd
#
# Track frame offsets: 
#        150
#        9940
#        23294
#        33038
#        45039
#        57611
#        68165
#        87331
#        99571
#        112311
#        124093
#
# Disc length: 1804 seconds
#
# Revision: 0
# Processed by: cddbd v1.5.2PL0 Copyright (c) Steve Scherf et al.
# Submitted via: ExactAudioCopy v1.3
#
DISCID=7e070a0b
DTITLE=Joakim Tinderholt And His Band - You Gotta Do More
DYEAR=2014
DGENRE=Bluesrock
TTITLE0=Stumblin' and Fumblin'
TTITLE1=I Need A Woman ('Cause I'm A Man)
TTITLE2=You Don't Love Me
TTITLE3=Another Rainy Day
TTITLE4=Gold Top
TTITLE5=You Gotta Do More
TTITLE6=It's Your Voodoo Working
TTITLE7=I Don't Care Who Knows
TTITLE8=Those Lonely, Lonely Nights
TTITLE9=Double Trouble
TTITLE10=I Got Loaded
EXTD=
EXTT0=
EXTT1=
EXTT2=
EXTT3=
EXTT4=
EXTT5=
EXTT6=
EXTT7=
EXTT8=
EXTT9=
EXTT10=
PLAYORDER=
